<?xml version="1.0" standalone="no"?>
<!DOCTYPE svg PUBLIC "-//W3C//DTD SVG 20010904//EN"
 "http://www.w3.org/TR/2001/REC-SVG-20010904/DTD/svg10.dtd">
<svg version="1.0" xmlns="http://www.w3.org/2000/svg"
 width="647.000000pt" height="647.000000pt" viewBox="0 0 647.000000 647.000000"
 preserveAspectRatio="xMidYMid meet">

<g transform="translate(0.000000,647.000000) scale(0.100000,-0.100000)"
fill="#000000" stroke="none">
<path d="M5730 5689 c-173 -199 -322 -372 -333 -385 -18 -24 -17 -24 80 9 242
83 254 87 258 74 15 -41 50 -137 83 -232 l39 -110 12 55 c62 312 181 943 178
946 -2 2 -145 -158 -317 -357z"/>
<path d="M2520 5234 c-14 -2 -59 -9 -100 -15 -527 -76 -999 -413 -1244 -889
-182 -355 -235 -733 -156 -1119 103 -504 443 -944 902 -1166 152 -73 268 -114
418 -147 92 -19 133 -22 330 -22 197 0 238 3 330 22 275 60 520 174 711 331
l56 46 4 545 c2 300 2 627 1 728 l-4 182 -163 0 -163 0 -291 -140 -292 -140
-349 175 -350 175 0 -187 0 -188 351 -172 351 -172 285 139 c158 77 289 140
293 140 3 0 7 -208 8 -463 2 -432 1 -465 -15 -479 -61 -52 -251 -141 -383
-179 -275 -80 -652 -62 -875 41 -22 10 -67 30 -100 45 -140 61 -308 187 -424
318 -323 365 -429 869 -280 1329 153 470 535 815 1017 919 126 27 397 36 554
20 255 -28 524 -104 730 -207 37 -19 70 -34 73 -34 3 0 5 81 5 179 l0 179 -77
32 c-167 70 -325 115 -528 151 -95 17 -169 22 -360 24 -132 2 -251 2 -265 -1z"/>
<path d="M4058 3733 l-98 -4 0 -624 c0 -344 2 -625 4 -625 6 0 165 201 254
320 l71 95 2 420 2 420 -69 1 c-38 0 -113 -1 -166 -3z"/>
<path d="M4123 2491 c-90 -105 -163 -195 -163 -201 0 -7 181 -10 570 -10 l570
0 0 130 0 130 -405 0 -404 0 -3 70 -3 70 -162 -189z"/>
</g>
</svg>
